<?xml version="1.0" encoding="UTF-8" standalone="no"?>
<!DOCTYPE svg PUBLIC "-//W3C//DTD SVG 20010904//EN"
              "http://www.w3.org/TR/2001/REC-SVG-20010904/DTD/svg10.dtd">

<svg xmlns="http://www.w3.org/2000/svg"
     width="762.098mm" height="254.033mm"
     viewBox="0 0 5500 2000">
  <defs>
    <linearGradient id="valographsLogoGradient" x1="50%" y1="100%" x2="0%" y2="0%">
      <stop class="stop1" offset="0%" stop-color="#c31432" />
      <stop class="stop2" offset="100%" stop-color="#4b305e" />
    </linearGradient>
  </defs>
  <path fill="url(#valographsLogoGradient)" stroke="none"
        d="M 1881.00,229.47
           C 1892.36,228.13 1902.04,235.24 1902.79,247.00
             1903.48,257.96 1895.18,262.27 1893.60,266.17
             1892.87,267.96 1893.00,271.04 1893.00,273.00
             1893.00,273.00 1893.00,351.00 1893.00,351.00
             1893.00,351.00 1893.00,481.00 1893.00,481.00
             1893.00,481.00 1893.00,546.00 1893.00,546.00
             1893.21,556.86 1902.82,555.68 1902.82,569.00
             1902.82,579.64 1895.23,583.14 1893.60,587.17
             1892.87,588.96 1893.00,592.04 1893.00,594.00
             1893.00,594.00 1893.00,745.00 1893.00,745.00
             1893.00,745.00 1893.00,949.00 1893.00,949.00
             1893.00,950.99 1892.88,954.09 1893.60,955.91
             1894.80,958.96 1897.93,960.58 1900.35,964.01
             1904.07,969.28 1904.72,976.04 1902.44,982.00
             1900.10,988.13 1895.31,991.88 1889.00,993.32
             1886.34,993.93 1882.72,993.60 1880.76,994.84
             1878.36,996.35 1875.79,1000.67 1873.79,1003.00
             1873.79,1003.00 1857.66,1021.00 1857.66,1021.00
             1857.66,1021.00 1836.19,1046.00 1836.19,1046.00
             1836.19,1046.00 1829.90,1054.00 1829.90,1054.00
             1829.90,1054.00 1810.58,1076.00 1810.58,1076.00
             1806.41,1082.15 1811.56,1088.48 1804.61,1096.96
             1797.37,1105.79 1790.29,1101.42 1784.17,1107.15
             1776.25,1114.55 1769.82,1123.80 1762.79,1132.00
             1762.79,1132.00 1749.17,1147.00 1749.17,1147.00
             1749.17,1147.00 1738.57,1160.00 1738.57,1160.00
             1738.57,1160.00 1726.06,1174.00 1726.06,1174.00
             1726.06,1174.00 1719.79,1182.00 1719.79,1182.00
             1719.79,1182.00 1696.39,1209.00 1696.39,1209.00
             1696.39,1209.00 1685.24,1222.00 1685.24,1222.00
             1682.38,1226.36 1684.09,1227.50 1683.79,1232.00
             1683.41,1237.69 1680.65,1243.03 1675.98,1246.35
             1669.92,1250.68 1661.34,1250.88 1655.00,1247.00
             1646.64,1241.86 1651.16,1239.02 1639.00,1239.00
             1639.00,1239.00 1398.00,1239.00 1398.00,1239.00
             1384.64,1239.09 1387.55,1249.82 1373.00,1249.82
             1361.64,1249.82 1358.46,1241.40 1353.91,1239.60
             1352.09,1238.88 1348.99,1239.00 1347.00,1239.00
             1347.00,1239.00 1111.00,1239.00 1111.00,1239.00
             1098.84,1239.02 1103.36,1241.86 1095.00,1247.00
             1088.29,1251.12 1079.15,1250.61 1073.04,1245.61
             1071.12,1244.04 1069.60,1242.19 1068.44,1240.00
             1063.47,1230.57 1067.11,1218.41 1077.00,1213.97
             1083.54,1211.03 1087.02,1213.22 1090.96,1210.52
             1090.96,1210.52 1107.54,1191.00 1107.54,1191.00
             1107.54,1191.00 1199.91,1077.00 1199.91,1077.00
             1199.91,1077.00 1232.01,1037.00 1232.01,1037.00
             1232.01,1037.00 1256.19,1007.00 1256.19,1007.00
             1256.19,1007.00 1273.19,986.00 1273.19,986.00
             1275.16,982.32 1273.44,979.75 1273.19,976.00
             1272.95,971.62 1274.62,966.43 1277.39,963.04
             1280.62,959.11 1285.00,956.96 1290.00,956.31
             1292.06,956.04 1295.15,956.40 1296.83,955.69
             1298.88,954.83 1301.40,951.73 1302.83,950.00
             1302.83,950.00 1374.62,861.00 1374.62,861.00
             1374.62,861.00 1478.37,733.00 1478.37,733.00
             1478.37,733.00 1567.37,623.00 1567.37,623.00
             1567.37,623.00 1612.21,568.00 1612.21,568.00
             1618.92,559.25 1609.50,553.90 1618.39,543.04
             1626.40,533.26 1634.61,539.05 1640.82,532.90
             1640.82,532.90 1660.80,508.00 1660.80,508.00
             1660.80,508.00 1705.57,453.00 1705.57,453.00
             1705.57,453.00 1726.32,427.00 1726.32,427.00
             1726.32,427.00 1777.37,364.00 1777.37,364.00
             1777.37,364.00 1815.37,317.00 1815.37,317.00
             1815.37,317.00 1837.67,290.00 1837.67,290.00
             1837.67,290.00 1856.87,266.00 1856.87,266.00
             1859.38,263.05 1864.75,257.64 1865.36,254.00
             1865.36,254.00 1865.36,246.00 1865.36,246.00
             1866.48,236.60 1872.11,231.57 1881.00,229.47 Z
           M 93.00,245.43
           C 108.16,243.89 122.85,253.26 127.22,268.00
             129.55,275.89 128.68,280.66 128.90,288.28
             128.90,288.28 128.90,330.00 128.90,330.00
             128.90,330.00 128.90,508.73 128.90,508.73
             128.90,508.73 128.90,657.00 128.90,657.00
             128.90,657.00 128.90,694.58 128.90,694.58
             128.90,694.58 128.90,745.58 128.90,745.58
             128.90,745.58 128.90,796.58 128.90,796.58
             128.90,796.58 128.90,852.73 128.90,852.73
             128.90,852.73 128.90,925.00 128.90,925.00
             128.90,925.00 128.90,974.01 128.90,974.01
             129.12,981.21 128.11,988.60 124.68,995.00
             112.74,1017.25 79.26,1017.25 67.32,995.00
             61.30,983.78 63.09,965.10 63.07,952.27
             63.07,952.27 63.07,874.00 63.07,874.00
             63.07,874.00 63.07,550.00 63.07,550.00
             63.07,550.00 63.07,332.00 63.07,332.00
             63.07,332.00 63.07,307.42 63.07,307.42
             63.59,286.43 58.04,260.29 81.00,248.81
             85.67,246.47 88.01,246.24 93.00,245.43 Z
           M 615.00,885.43
           C 630.16,883.89 644.85,893.26 649.22,908.00
             651.55,915.89 650.68,920.66 650.90,928.28
             650.90,928.28 650.90,970.00 650.90,970.00
             650.90,970.00 650.90,1148.73 650.90,1148.73
             650.90,1148.73 650.90,1297.00 650.90,1297.00
             650.90,1297.00 650.90,1334.58 650.90,1334.58
             650.90,1334.58 650.90,1385.58 650.90,1385.58
             650.90,1385.58 650.90,1436.58 650.90,1436.58
             650.90,1436.58 650.90,1492.73 650.90,1492.73
             650.90,1492.73 650.90,1565.00 650.90,1565.00
             650.90,1565.00 650.90,1614.01 650.90,1614.01
             651.12,1621.21 650.11,1628.60 646.68,1635.00
             634.74,1657.25 601.26,1657.25 589.32,1635.00
             583.30,1623.78 585.09,1605.10 585.07,1592.27
             585.07,1592.27 585.07,1514.00 585.07,1514.00
             585.07,1514.00 585.07,1190.00 585.07,1190.00
             585.07,1190.00 585.07,972.00 585.07,972.00
             585.07,972.00 585.07,947.42 585.07,947.42
             585.59,926.43 580.04,900.29 603.00,888.81
             607.67,886.47 610.01,886.24 615.00,885.43 Z
           M 1877.00,267.00
           C 1877.00,267.00 1859.07,289.00 1859.07,289.00
             1859.07,289.00 1820.19,337.00 1820.19,337.00
             1820.19,337.00 1754.54,418.00 1754.54,418.00
             1754.54,418.00 1733.12,444.00 1733.12,444.00
             1733.12,444.00 1707.12,476.00 1707.12,476.00
             1707.12,476.00 1687.13,501.00 1687.13,501.00
             1687.13,501.00 1664.64,529.00 1664.64,529.00
             1661.27,533.27 1654.20,540.58 1652.03,545.00
             1649.05,551.08 1654.47,555.03 1649.00,564.00
             1644.62,571.17 1637.20,574.81 1629.00,573.00
             1629.00,573.00 1605.17,602.00 1605.17,602.00
             1605.17,602.00 1551.51,668.00 1551.51,668.00
             1551.51,668.00 1500.46,731.00 1500.46,731.00
             1500.46,731.00 1467.68,772.00 1467.68,772.00
             1467.68,772.00 1370.93,891.00 1370.93,891.00
             1370.93,891.00 1338.83,931.00 1338.83,931.00
             1338.83,931.00 1312.21,964.00 1312.21,964.00
             1308.58,969.53 1311.04,970.58 1310.61,976.00
             1310.29,980.03 1308.47,983.96 1305.79,986.96
             1297.11,996.66 1291.49,990.58 1284.42,998.06
             1284.42,998.06 1273.91,1011.00 1273.91,1011.00
             1273.91,1011.00 1245.54,1046.00 1245.54,1046.00
             1245.54,1046.00 1180.69,1126.00 1180.69,1126.00
             1180.69,1126.00 1129.64,1189.00 1129.64,1189.00
             1120.82,1200.18 1110.43,1210.88 1103.00,1223.00
             1103.00,1223.00 1348.00,1223.00 1348.00,1223.00
             1350.47,1223.00 1353.52,1223.22 1355.72,1221.98
             1359.31,1219.94 1363.44,1212.34 1373.00,1212.34
             1382.56,1212.34 1386.69,1219.94 1390.28,1221.98
             1392.48,1223.22 1395.53,1223.00 1398.00,1223.00
             1398.00,1223.00 1640.00,1223.00 1640.00,1223.00
             1652.56,1222.97 1647.88,1219.23 1657.00,1214.44
             1664.34,1210.59 1667.79,1213.87 1672.00,1211.36
             1674.69,1209.76 1677.99,1205.44 1680.16,1203.00
             1680.16,1203.00 1696.37,1184.00 1696.37,1184.00
             1696.37,1184.00 1710.70,1168.00 1710.70,1168.00
             1710.70,1168.00 1721.29,1155.00 1721.29,1155.00
             1721.29,1155.00 1733.81,1141.00 1733.81,1141.00
             1733.81,1141.00 1740.10,1133.00 1740.10,1133.00
             1740.10,1133.00 1764.30,1105.00 1764.30,1105.00
             1764.30,1105.00 1770.57,1098.00 1770.57,1098.00
             1774.39,1092.64 1771.34,1090.38 1771.34,1085.00
             1771.35,1080.71 1773.39,1076.20 1776.21,1073.04
             1779.33,1069.55 1783.34,1067.19 1788.00,1066.50
             1793.50,1065.70 1794.83,1068.38 1799.96,1063.85
             1799.96,1063.85 1815.28,1046.00 1815.28,1046.00
             1815.28,1046.00 1832.29,1026.00 1832.29,1026.00
             1832.29,1026.00 1848.59,1007.00 1848.59,1007.00
             1848.59,1007.00 1866.53,986.00 1866.53,986.00
             1869.27,980.43 1864.53,978.42 1867.22,970.00
             1869.50,962.90 1874.12,961.01 1875.98,957.72
             1877.22,955.52 1877.00,952.47 1877.00,950.00
             1877.00,950.00 1877.00,594.00 1877.00,594.00
             1877.00,592.21 1877.14,588.96 1876.43,587.37
             1875.55,585.42 1872.69,583.53 1871.10,581.90
             1867.77,578.48 1865.34,573.87 1865.34,569.00
             1865.34,564.13 1867.77,559.52 1871.10,556.10
             1872.69,554.47 1875.55,552.58 1876.43,550.63
             1877.14,549.04 1877.00,545.79 1877.00,544.00
             1877.00,544.00 1877.00,267.00 1877.00,267.00 Z
           M 169.00,339.43
           C 184.16,337.89 198.85,347.26 203.22,362.00
             205.55,369.89 204.68,374.66 204.90,382.28
             204.90,382.28 204.90,424.00 204.90,424.00
             204.90,424.00 204.90,602.73 204.90,602.73
             204.90,602.73 204.90,751.00 204.90,751.00
             204.90,751.00 204.90,788.58 204.90,788.58
             204.90,788.58 204.90,839.58 204.90,839.58
             204.90,839.58 204.90,890.58 204.90,890.58
             204.90,890.58 204.90,946.73 204.90,946.73
             204.90,946.73 204.90,1019.00 204.90,1019.00
             204.90,1019.00 204.90,1068.01 204.90,1068.01
             205.12,1075.21 204.11,1082.60 200.68,1089.00
             188.74,1111.25 155.26,1111.25 143.32,1089.00
             137.30,1077.78 139.09,1059.10 139.07,1046.27
             139.07,1046.27 139.07,968.00 139.07,968.00
             139.07,968.00 139.07,644.00 139.07,644.00
             139.07,644.00 139.07,426.00 139.07,426.00
             139.07,426.00 139.07,401.42 139.07,401.42
             139.59,380.43 134.04,354.29 157.00,342.81
             161.67,340.47 164.01,340.24 169.00,339.43 Z
           M 269.00,1184.00
           C 267.17,1189.71 262.01,1192.17 256.58,1193.89
             244.64,1197.68 231.03,1195.19 222.18,1185.91
             210.16,1173.30 213.07,1152.43 213.11,1136.27
             213.11,1136.27 213.11,913.27 213.11,913.27
             213.11,913.27 213.11,709.27 213.11,709.27
             213.11,709.27 213.11,516.00 213.11,516.00
             213.11,516.00 213.11,466.99 213.11,466.99
             212.87,459.28 213.99,451.76 217.88,445.00
             230.46,423.14 264.59,424.08 275.68,448.00
             280.06,457.46 279.04,473.03 278.88,483.58
             278.88,483.58 278.88,585.58 278.88,585.58
             278.88,585.58 278.88,660.73 278.88,660.73
             278.88,660.73 278.88,784.00 278.88,784.00
             278.88,784.00 278.88,934.73 278.88,934.73
             278.88,934.73 278.88,1087.73 278.88,1087.73
             278.88,1087.73 278.88,1158.01 278.88,1158.01
             279.12,1165.04 277.31,1182.22 269.00,1184.00 Z
           M 319.00,520.43
           C 334.16,518.89 348.85,528.26 353.22,543.00
             355.55,550.89 354.68,555.66 354.90,563.28
             354.90,563.28 354.90,605.00 354.90,605.00
             354.90,605.00 354.90,783.73 354.90,783.73
             354.90,783.73 354.90,932.00 354.90,932.00
             354.90,932.00 354.90,969.58 354.90,969.58
             354.90,969.58 354.90,1020.58 354.90,1020.58
             354.90,1020.58 354.90,1071.58 354.90,1071.58
             354.90,1071.58 354.90,1127.73 354.90,1127.73
             354.90,1127.73 354.90,1200.00 354.90,1200.00
             354.90,1200.00 354.90,1249.01 354.90,1249.01
             355.12,1256.21 354.11,1263.60 350.68,1270.00
             338.74,1292.25 305.26,1292.25 293.32,1270.00
             287.30,1258.78 289.09,1240.10 289.07,1227.27
             289.07,1227.27 289.07,1149.00 289.07,1149.00
             289.07,1149.00 289.07,825.00 289.07,825.00
             289.07,825.00 289.07,607.00 289.07,607.00
             289.07,607.00 289.07,582.42 289.07,582.42
             289.59,561.43 284.04,535.29 307.00,523.81
             311.67,521.47 314.01,521.24 319.00,520.43 Z
           M 393.00,611.43
           C 408.16,609.89 422.85,619.26 427.22,634.00
             429.55,641.89 428.68,646.66 428.90,654.28
             428.90,654.28 428.90,696.00 428.90,696.00
             428.90,696.00 428.90,874.73 428.90,874.73
             428.90,874.73 428.90,1023.00 428.90,1023.00
             428.90,1023.00 428.90,1060.58 428.90,1060.58
             428.90,1060.58 428.90,1111.58 428.90,1111.58
             428.90,1111.58 428.90,1162.58 428.90,1162.58
             428.90,1162.58 428.90,1218.73 428.90,1218.73
             428.90,1218.73 428.90,1291.00 428.90,1291.00
             428.90,1291.00 428.90,1340.01 428.90,1340.01
             429.12,1347.21 428.11,1354.60 424.68,1361.00
             412.74,1383.25 379.26,1383.25 367.32,1361.00
             361.30,1349.78 363.09,1331.10 363.07,1318.27
             363.07,1318.27 363.07,1240.00 363.07,1240.00
             363.07,1240.00 363.07,916.00 363.07,916.00
             363.07,916.00 363.07,698.00 363.07,698.00
             363.07,698.00 363.07,673.42 363.07,673.42
             363.59,652.43 358.04,626.29 381.00,614.81
             385.67,612.47 388.01,612.24 393.00,611.43 Z
           M 467.00,700.43
           C 482.16,698.89 496.85,708.26 501.22,723.00
             503.55,730.89 502.68,735.66 502.90,743.28
             502.90,743.28 502.90,785.00 502.90,785.00
             502.90,785.00 502.90,963.73 502.90,963.73
             502.90,963.73 502.90,1112.00 502.90,1112.00
             502.90,1112.00 502.90,1149.58 502.90,1149.58
             502.90,1149.58 502.90,1200.58 502.90,1200.58
             502.90,1200.58 502.90,1251.58 502.90,1251.58
             502.90,1251.58 502.90,1307.73 502.90,1307.73
             502.90,1307.73 502.90,1380.00 502.90,1380.00
             502.90,1380.00 502.90,1429.01 502.90,1429.01
             503.12,1436.21 502.11,1443.60 498.68,1450.00
             486.74,1472.25 453.26,1472.25 441.32,1450.00
             435.30,1438.78 437.09,1420.10 437.07,1407.27
             437.07,1407.27 437.07,1329.00 437.07,1329.00
             437.07,1329.00 437.07,1005.00 437.07,1005.00
             437.07,1005.00 437.07,787.00 437.07,787.00
             437.07,787.00 437.07,762.42 437.07,762.42
             437.59,741.43 432.04,715.29 455.00,703.81
             459.67,701.47 462.01,701.24 467.00,700.43 Z
           M 541.00,788.43
           C 556.16,786.89 570.85,796.26 575.22,811.00
             577.55,818.89 576.68,823.66 576.90,831.28
             576.90,831.28 576.90,873.00 576.90,873.00
             576.90,873.00 576.90,1051.73 576.90,1051.73
             576.90,1051.73 576.90,1200.00 576.90,1200.00
             576.90,1200.00 576.90,1237.58 576.90,1237.58
             576.90,1237.58 576.90,1288.58 576.90,1288.58
             576.90,1288.58 576.90,1339.58 576.90,1339.58
             576.90,1339.58 576.90,1395.73 576.90,1395.73
             576.90,1395.73 576.90,1468.00 576.90,1468.00
             576.90,1468.00 576.90,1517.01 576.90,1517.01
             577.12,1524.21 576.11,1531.60 572.68,1538.00
             560.74,1560.25 527.26,1560.25 515.32,1538.00
             509.30,1526.78 511.09,1508.10 511.07,1495.27
             511.07,1495.27 511.07,1417.00 511.07,1417.00
             511.07,1417.00 511.07,1093.00 511.07,1093.00
             511.07,1093.00 511.07,875.00 511.07,875.00
             511.07,875.00 511.07,850.42 511.07,850.42
             511.59,829.43 506.04,803.29 529.00,791.81
             533.67,789.47 536.01,789.24 541.00,788.43 Z
           M 689.00,969.43
           C 704.16,967.89 718.85,977.26 723.22,992.00
             725.55,999.89 724.68,1004.66 724.90,1012.28
             724.90,1012.28 724.90,1054.00 724.90,1054.00
             724.90,1054.00 724.90,1232.73 724.90,1232.73
             724.90,1232.73 724.90,1381.00 724.90,1381.00
             724.90,1381.00 724.90,1418.58 724.90,1418.58
             724.90,1418.58 724.90,1469.58 724.90,1469.58
             724.90,1469.58 724.90,1520.58 724.90,1520.58
             724.90,1520.58 724.90,1576.73 724.90,1576.73
             724.90,1576.73 724.90,1649.00 724.90,1649.00
             724.90,1649.00 724.90,1698.01 724.90,1698.01
             725.12,1705.21 724.11,1712.60 720.68,1719.00
             708.74,1741.25 675.26,1741.25 663.32,1719.00
             657.30,1707.78 659.09,1689.10 659.07,1676.27
             659.07,1676.27 659.07,1598.00 659.07,1598.00
             659.07,1598.00 659.07,1274.00 659.07,1274.00
             659.07,1274.00 659.07,1056.00 659.07,1056.00
             659.07,1056.00 659.07,1031.42 659.07,1031.42
             659.59,1010.43 654.04,984.29 677.00,972.81
             681.67,970.47 684.01,970.24 689.00,969.43 Z
           M 764.00,1057.43
           C 768.20,1057.00 770.89,1057.39 775.00,1058.29
             778.29,1059.01 781.09,1060.20 784.00,1061.88
             803.76,1073.25 799.95,1097.46 799.86,1116.73
             799.86,1116.73 799.86,1288.73 799.86,1288.73
             799.86,1288.73 799.86,1511.73 799.86,1511.73
             799.86,1511.73 799.86,1589.58 799.86,1589.58
             799.86,1589.58 799.86,1659.58 799.86,1659.58
             799.86,1659.58 799.86,1691.00 799.86,1691.00
             799.95,1703.00 800.17,1714.25 791.79,1724.00
             778.68,1739.25 753.87,1738.84 741.39,1723.00
             735.24,1715.19 734.37,1707.19 734.10,1697.72
             734.10,1697.72 734.10,1611.27 734.10,1611.27
             734.10,1611.27 734.10,1216.27 734.10,1216.27
             734.10,1216.27 734.10,1138.00 734.10,1138.00
             734.10,1138.00 734.10,1094.99 734.10,1094.99
             733.72,1079.95 738.59,1067.00 753.00,1060.32
             757.17,1058.39 759.60,1058.15 764.00,1057.43 Z
           M 838.00,1154.43
           C 853.16,1152.89 867.85,1162.26 872.22,1177.00
             874.53,1184.80 873.88,1192.73 873.83,1200.73
             873.83,1200.73 873.83,1353.73 873.83,1353.73
             873.83,1353.73 873.83,1608.73 873.83,1608.73
             873.83,1608.73 873.83,1673.58 873.83,1673.58
             873.53,1688.52 876.55,1708.03 868.53,1721.00
             856.15,1741.04 824.61,1740.40 812.88,1720.00
             806.13,1708.27 808.09,1689.74 808.17,1676.27
             808.17,1676.27 808.17,1630.42 808.17,1630.42
             808.17,1630.42 808.17,1611.42 808.17,1611.42
             808.17,1611.42 808.17,1574.27 808.17,1574.27
             808.17,1574.27 808.17,1477.42 808.17,1477.42
             808.17,1477.42 808.17,1402.27 808.17,1402.27
             808.17,1402.27 808.17,1230.27 808.17,1230.27
             808.17,1230.27 808.17,1198.27 808.17,1198.27
             808.27,1181.26 808.29,1166.66 826.00,1157.81
             830.67,1155.47 833.01,1155.24 838.00,1154.43 Z
           M 264.00,1187.00
           C 264.00,1187.00 263.00,1187.00 263.00,1187.00
             263.00,1187.00 264.00,1188.00 264.00,1188.00
             264.00,1188.00 264.00,1187.00 264.00,1187.00 Z
           M 913.00,1237.43
           C 928.48,1235.86 943.61,1245.73 947.49,1261.00
             949.79,1270.06 948.89,1292.33 948.90,1302.73
             948.90,1302.73 948.90,1353.73 948.90,1353.73
             948.90,1353.73 948.90,1474.73 948.90,1474.73
             948.90,1474.73 948.90,1650.00 948.90,1650.00
             948.90,1650.00 948.90,1698.01 948.90,1698.01
             949.13,1705.72 948.01,1713.24 944.12,1720.00
             931.54,1741.86 897.41,1740.92 886.32,1717.00
             882.33,1708.39 883.34,1701.57 883.09,1692.72
             883.09,1692.72 883.09,1649.00 883.09,1649.00
             883.09,1649.00 883.09,1300.27 883.09,1300.27
             883.09,1300.27 883.09,1274.99 883.09,1274.99
             882.73,1260.44 887.27,1247.67 901.00,1240.81
             905.67,1238.47 908.01,1238.24 913.00,1237.43 Z
           M 987.00,1326.43
           C 1002.16,1324.89 1016.85,1334.26 1021.22,1349.00
             1023.56,1356.92 1023.01,1370.35 1022.90,1379.00
             1022.90,1379.00 1022.90,1432.00 1022.90,1432.00
             1022.90,1432.00 1022.90,1576.73 1022.90,1576.73
             1022.90,1576.73 1022.90,1622.58 1022.90,1622.58
             1022.90,1622.58 1022.90,1673.58 1022.90,1673.58
             1022.53,1688.52 1025.55,1708.03 1017.53,1721.00
             1005.45,1740.55 974.55,1740.55 962.47,1721.00
             954.96,1708.86 957.08,1690.31 957.06,1676.27
             957.06,1676.27 957.06,1426.00 957.06,1426.00
             957.06,1426.00 957.06,1375.00 957.06,1375.00
             957.17,1356.34 955.75,1338.71 976.00,1329.32
             980.17,1327.39 982.60,1327.15 987.00,1326.43 Z
           M 1062.00,1416.43
           C 1066.20,1416.00 1068.89,1416.39 1073.00,1417.29
             1101.81,1423.59 1097.96,1453.50 1097.83,1475.73
             1097.83,1475.73 1097.83,1628.73 1097.83,1628.73
             1097.83,1628.73 1097.83,1674.58 1097.83,1674.58
             1097.51,1690.47 1100.94,1710.57 1091.21,1724.00
             1078.37,1741.72 1048.98,1740.63 1037.47,1722.00
             1030.42,1710.61 1031.91,1695.38 1032.17,1682.42
             1032.17,1682.42 1032.17,1626.27 1032.17,1626.27
             1032.17,1626.27 1032.17,1505.27 1032.17,1505.27
             1032.17,1505.27 1032.17,1459.42 1032.17,1459.42
             1032.52,1442.15 1032.58,1427.86 1051.00,1419.32
             1055.17,1417.39 1057.60,1417.15 1062.00,1416.43 Z
           M 1137.00,1504.43
           C 1152.16,1502.89 1166.85,1512.26 1171.22,1527.00
             1173.41,1534.40 1172.99,1544.81 1172.88,1552.58
             1172.88,1552.58 1172.88,1627.73 1172.88,1627.73
             1172.88,1627.73 1172.88,1698.01 1172.88,1698.01
             1173.19,1708.52 1170.79,1719.30 1162.91,1726.82
             1148.55,1740.50 1123.05,1738.12 1112.47,1721.00
             1106.21,1710.88 1107.39,1703.68 1107.11,1692.72
             1107.11,1692.72 1107.11,1649.00 1107.11,1649.00
             1107.11,1649.00 1107.11,1579.42 1107.11,1579.42
             1107.11,1579.42 1108.09,1530.00 1108.09,1530.00
             1111.10,1514.42 1122.17,1506.84 1137.00,1504.43 Z
           M 1213.00,1594.43
           C 1227.24,1592.98 1240.52,1600.83 1246.12,1614.00
             1249.93,1622.97 1249.09,1644.52 1248.91,1655.00
             1248.91,1655.00 1248.91,1673.58 1248.91,1673.58
             1248.38,1695.67 1254.13,1723.49 1228.00,1733.53
             1225.31,1734.57 1220.89,1735.41 1218.00,1735.70
             1203.65,1737.12 1189.66,1727.40 1185.10,1714.00
             1182.27,1705.69 1182.98,1690.56 1183.08,1681.42
             1183.08,1681.42 1183.08,1651.00 1183.08,1651.00
             1183.03,1631.28 1179.92,1608.35 1201.00,1597.81
             1205.67,1595.47 1208.01,1595.24 1213.00,1594.43 Z
           M 1289.00,1671.43
           C 1322.41,1668.03 1336.71,1710.71 1312.99,1729.47
             1307.43,1733.87 1300.98,1736.01 1294.00,1736.70
             1269.97,1739.08 1253.13,1713.69 1261.47,1692.00
             1266.49,1678.92 1275.80,1673.58 1289.00,1671.43 Z" />
  <path id="valographsFontPath"
        fill="white"
        d="M 3692.00,1099.00
           C 3687.45,1101.62 3684.23,1108.65 3680.56,1113.00
             3675.64,1118.83 3667.46,1125.14 3661.00,1129.30
             3638.75,1143.63 3600.52,1154.96 3574.00,1155.00
             3574.00,1155.00 3541.00,1155.00 3541.00,1155.00
             3541.00,1155.00 3531.00,1154.09 3531.00,1154.09
             3490.39,1151.12 3445.65,1134.90 3417.09,1104.99
             3391.35,1078.03 3374.06,1036.45 3374.00,999.00
             3374.00,999.00 3374.00,961.00 3374.00,961.00
             3374.00,961.00 3376.08,943.00 3376.08,943.00
             3380.74,914.81 3391.25,889.25 3409.46,867.00
             3440.35,829.26 3484.94,810.48 3532.00,802.59
             3541.55,800.98 3556.49,799.01 3566.00,799.00
             3566.00,799.00 3605.00,799.00 3605.00,799.00
             3623.91,799.22 3651.69,804.65 3670.00,809.86
             3709.92,821.22 3752.13,846.90 3771.19,885.00
             3778.55,899.70 3780.88,911.96 3783.00,928.00
             3783.00,928.00 3670.00,928.00 3670.00,928.00
             3667.82,928.00 3664.32,928.23 3662.49,926.98
             3659.65,925.03 3659.79,920.14 3651.96,912.00
             3643.46,903.18 3634.45,898.77 3623.00,895.00
             3605.63,889.28 3591.81,889.92 3574.00,890.00
             3547.75,890.12 3517.37,902.08 3504.31,926.00
             3494.35,944.25 3495.97,967.72 3496.00,988.00
             3496.00,988.00 3497.06,999.00 3497.06,999.00
             3497.06,999.00 3497.06,1008.00 3497.06,1008.00
             3498.93,1020.58 3505.08,1033.00 3514.04,1041.96
             3525.79,1053.71 3542.88,1059.81 3559.00,1062.41
             3571.11,1064.36 3580.83,1064.14 3593.00,1064.00
             3617.98,1063.70 3642.99,1051.57 3656.00,1030.00
             3656.00,1030.00 3583.00,1030.00 3583.00,1030.00
             3583.00,1030.00 3583.00,957.00 3583.00,957.00
             3583.00,957.00 3786.00,957.00 3786.00,957.00
             3786.00,957.00 3786.00,1151.00 3786.00,1151.00
             3786.00,1151.00 3700.00,1151.00 3700.00,1151.00
             3700.00,1151.00 3692.00,1099.00 3692.00,1099.00 Z
           M 2118.00,803.00
           C 2118.00,803.00 2239.00,803.00 2239.00,803.00
             2240.70,803.00 2244.12,802.86 2245.58,803.57
             2248.38,804.93 2251.23,814.84 2252.42,818.00
             2252.42,818.00 2268.19,860.00 2268.19,860.00
             2268.19,860.00 2321.68,1003.00 2321.68,1003.00
             2321.68,1003.00 2333.86,1039.00 2333.86,1039.00
             2335.34,1044.15 2336.14,1051.09 2341.00,1054.00
             2341.00,1054.00 2347.66,1032.00 2347.66,1032.00
             2347.66,1032.00 2365.58,982.00 2365.58,982.00
             2365.58,982.00 2391.05,913.00 2391.05,913.00
             2391.05,913.00 2410.34,861.00 2410.34,861.00
             2410.34,861.00 2426.32,818.00 2426.32,818.00
             2426.32,818.00 2432.51,804.02 2432.51,804.02
             2432.51,804.02 2440.00,803.00 2440.00,803.00
             2440.00,803.00 2560.00,803.00 2560.00,803.00
             2560.00,803.00 2546.85,836.00 2546.85,836.00
             2546.85,836.00 2521.85,895.00 2521.85,895.00
             2521.85,895.00 2447.42,1071.00 2447.42,1071.00
             2447.42,1071.00 2422.01,1131.00 2422.01,1131.00
             2422.01,1131.00 2413.36,1149.01 2413.36,1149.01
             2413.36,1149.01 2406.00,1150.00 2406.00,1150.00
             2406.00,1150.00 2273.00,1150.00 2273.00,1150.00
             2273.00,1150.00 2265.39,1148.98 2265.39,1148.98
             2265.39,1148.98 2256.58,1131.00 2256.58,1131.00
             2256.58,1131.00 2230.72,1070.00 2230.72,1070.00
             2230.72,1070.00 2160.58,904.00 2160.58,904.00
             2160.58,904.00 2134.72,843.00 2134.72,843.00
             2134.72,843.00 2118.00,803.00 2118.00,803.00 Z
           M 2897.00,803.00
           C 2897.00,803.00 3004.00,803.00 3004.00,803.00
             3004.00,803.00 3004.00,1150.00 3004.00,1150.00
             3004.00,1150.00 2897.00,1150.00 2897.00,1150.00
             2897.00,1150.00 2897.00,803.00 2897.00,803.00 Z
           M 4788.00,803.00
           C 4788.00,803.00 4895.00,803.00 4895.00,803.00
             4895.00,803.00 4895.00,927.00 4895.00,927.00
             4903.63,926.30 4904.57,920.79 4910.17,915.17
             4915.51,909.80 4924.24,903.75 4931.00,900.26
             4958.88,885.84 4977.63,885.65 5008.00,886.00
             5013.50,886.07 5020.56,887.31 5026.00,888.40
             5065.42,896.33 5090.57,924.09 5098.40,963.00
             5099.81,970.03 5100.99,976.81 5101.00,984.00
             5101.00,984.00 5101.00,1150.00 5101.00,1150.00
             5101.00,1150.00 4994.00,1150.00 4994.00,1150.00
             4994.00,1150.00 4994.00,1016.00 4994.00,1016.00
             4994.00,1016.00 4993.09,1004.00 4993.09,1004.00
             4992.29,992.41 4991.51,984.03 4982.83,975.09
             4976.13,968.19 4966.28,965.17 4957.00,963.87
             4936.13,960.94 4912.36,966.21 4901.35,986.00
             4893.69,999.77 4895.00,1025.20 4895.00,1041.00
             4895.00,1041.00 4895.00,1150.00 4895.00,1150.00
             4895.00,1150.00 4788.00,1150.00 4788.00,1150.00
             4788.00,1150.00 4788.00,803.00 4788.00,803.00 Z
           M 4533.00,920.00
           C 4539.43,918.09 4541.79,912.76 4547.00,908.46
             4553.27,903.30 4560.54,899.56 4568.00,896.42
             4580.43,891.20 4600.55,886.16 4614.00,886.00
             4614.00,886.00 4630.00,885.18 4630.00,885.18
             4658.58,887.21 4679.62,889.57 4704.00,906.72
             4734.86,928.43 4752.94,968.54 4753.00,1006.00
             4753.00,1006.00 4753.00,1036.00 4753.00,1036.00
             4752.66,1064.61 4739.98,1096.89 4720.83,1118.00
             4699.78,1141.20 4664.87,1153.64 4634.00,1154.00
             4634.00,1154.00 4624.00,1154.82 4624.00,1154.82
             4624.00,1154.82 4616.00,1154.04 4616.00,1154.04
             4595.74,1153.16 4578.15,1149.86 4560.00,1140.22
             4555.06,1137.60 4548.01,1132.90 4544.17,1128.91
             4539.82,1124.39 4539.42,1120.93 4533.00,1119.00
             4533.00,1119.00 4533.00,1229.00 4533.00,1229.00
             4533.00,1229.00 4426.00,1229.00 4426.00,1229.00
             4426.00,1229.00 4426.00,890.00 4426.00,890.00
             4426.00,890.00 4520.00,890.00 4520.00,890.00
             4520.00,890.00 4527.41,891.02 4527.41,891.02
             4527.41,891.02 4529.92,899.00 4529.92,899.00
             4529.92,899.00 4533.00,920.00 4533.00,920.00 Z
           M 2740.00,1120.00
           C 2734.91,1122.52 2732.17,1127.05 2728.00,1130.91
             2723.95,1134.65 2717.89,1138.52 2713.00,1141.11
             2698.52,1148.79 2673.41,1154.97 2657.00,1155.00
             2657.00,1155.00 2635.00,1155.00 2635.00,1155.00
             2626.70,1154.99 2617.07,1153.38 2609.00,1151.37
             2570.45,1141.79 2543.03,1116.65 2530.08,1079.00
             2521.04,1052.75 2521.69,1032.09 2522.00,1005.00
             2522.26,983.07 2531.45,954.08 2543.75,936.00
             2565.37,904.22 2603.19,887.44 2641.00,887.00
             2641.00,887.00 2651.00,886.18 2651.00,886.18
             2651.00,886.18 2658.00,887.04 2658.00,887.04
             2658.00,887.04 2668.00,887.04 2668.00,887.04
             2682.35,888.54 2701.24,893.12 2714.00,899.78
             2719.04,902.42 2725.98,907.00 2729.91,911.04
             2734.12,915.36 2735.00,919.15 2741.00,921.00
             2741.00,921.00 2745.00,891.00 2745.00,891.00
             2745.00,891.00 2848.00,891.00 2848.00,891.00
             2848.00,891.00 2848.00,1150.00 2848.00,1150.00
             2848.00,1150.00 2740.00,1150.00 2740.00,1150.00
             2740.00,1150.00 2740.00,1120.00 2740.00,1120.00 Z
           M 3171.00,886.21
           C 3171.00,886.21 3210.00,886.21 3210.00,886.21
             3241.07,886.05 3285.28,899.00 3309.00,919.30
             3334.76,941.34 3349.95,972.94 3350.00,1007.00
             3350.00,1007.00 3350.00,1036.00 3350.00,1036.00
             3349.94,1041.15 3348.93,1046.89 3348.08,1052.00
             3343.58,1079.18 3331.63,1101.40 3311.00,1119.83
             3286.79,1141.45 3242.26,1154.95 3210.00,1155.00
             3210.00,1155.00 3177.00,1155.00 3177.00,1155.00
             3177.00,1155.00 3159.00,1153.13 3159.00,1153.13
             3124.18,1148.29 3091.08,1135.77 3067.17,1109.00
             3049.96,1089.72 3039.04,1059.85 3039.00,1034.00
             3039.00,1034.00 3039.00,1005.00 3039.00,1005.00
             3039.24,985.22 3047.13,959.20 3058.44,943.00
             3079.89,912.26 3111.06,896.85 3147.00,889.80
             3147.00,889.80 3171.00,886.21 3171.00,886.21 Z
           M 4269.00,1120.00
           C 4263.91,1122.52 4261.17,1127.05 4257.00,1130.91
             4252.95,1134.65 4246.89,1138.52 4242.00,1141.11
             4227.52,1148.79 4202.41,1154.97 4186.00,1155.00
             4186.00,1155.00 4164.00,1155.00 4164.00,1155.00
             4155.70,1154.99 4146.07,1153.38 4138.00,1151.37
             4099.45,1141.79 4072.03,1116.65 4059.08,1079.00
             4050.04,1052.75 4050.69,1032.09 4051.00,1005.00
             4051.26,983.07 4060.45,954.08 4072.75,936.00
             4094.37,904.22 4132.19,887.44 4170.00,887.00
             4170.00,887.00 4180.00,886.18 4180.00,886.18
             4180.00,886.18 4187.00,887.04 4187.00,887.04
             4187.00,887.04 4197.00,887.04 4197.00,887.04
             4211.35,888.54 4230.24,893.12 4243.00,899.78
             4248.04,902.42 4254.98,907.00 4258.91,911.04
             4263.12,915.36 4264.00,919.15 4270.00,921.00
             4270.00,921.00 4274.00,891.00 4274.00,891.00
             4274.00,891.00 4377.00,891.00 4377.00,891.00
             4377.00,891.00 4377.00,1150.00 4377.00,1150.00
             4377.00,1150.00 4269.00,1150.00 4269.00,1150.00
             4269.00,1150.00 4269.00,1120.00 4269.00,1120.00 Z
           M 5239.00,1067.00
           C 5239.87,1071.25 5240.68,1074.46 5243.53,1077.91
             5253.14,1089.54 5277.16,1089.02 5291.00,1089.00
             5295.58,1088.99 5298.50,1088.94 5303.00,1087.71
             5311.18,1085.49 5322.99,1077.61 5316.30,1068.04
             5312.81,1063.05 5305.70,1061.33 5300.00,1060.26
             5300.00,1060.26 5262.00,1055.92 5262.00,1055.92
             5262.00,1055.92 5239.00,1053.42 5239.00,1053.42
             5203.15,1048.22 5154.83,1038.22 5143.43,998.00
             5142.03,993.07 5141.06,988.14 5141.00,983.00
             5140.80,965.90 5140.34,955.07 5147.89,939.00
             5157.95,917.59 5180.33,903.95 5202.00,896.67
             5218.57,891.10 5246.59,886.03 5264.00,886.00
             5264.00,886.00 5280.00,886.00 5280.00,886.00
             5303.86,886.00 5316.22,886.15 5340.00,891.21
             5372.81,898.20 5409.53,914.91 5419.26,950.00
             5421.27,957.28 5421.00,960.69 5421.00,968.00
             5421.00,968.00 5323.00,968.00 5323.00,968.00
             5320.97,968.00 5317.37,968.26 5315.72,967.01
             5313.48,965.30 5314.21,962.16 5308.91,957.93
             5302.39,952.72 5293.25,950.10 5285.00,950.00
             5285.00,950.00 5276.00,950.00 5276.00,950.00
             5268.20,950.01 5258.87,951.31 5253.11,957.11
             5249.21,961.03 5247.46,966.17 5251.43,970.79
             5256.09,976.20 5269.11,977.62 5276.00,978.58
             5306.00,982.72 5336.36,983.22 5366.00,990.23
             5384.22,994.54 5402.42,1002.21 5414.54,1017.00
             5423.61,1028.07 5428.83,1043.71 5429.00,1058.00
             5429.00,1058.00 5429.00,1074.00 5429.00,1074.00
             5428.91,1092.96 5418.93,1111.39 5405.00,1123.83
             5390.28,1136.97 5368.97,1144.51 5350.00,1148.88
             5337.86,1151.68 5314.27,1154.98 5302.00,1155.00
             5302.00,1155.00 5261.00,1155.00 5261.00,1155.00
             5261.00,1155.00 5249.00,1154.09 5249.00,1154.09
             5224.51,1152.30 5199.10,1147.29 5177.00,1136.25
             5151.87,1123.68 5132.05,1102.45 5132.00,1073.00
             5132.00,1073.00 5132.00,1067.00 5132.00,1067.00
             5132.00,1067.00 5239.00,1067.00 5239.00,1067.00 Z
           M 3833.00,1150.00
           C 3833.00,1150.00 3833.00,989.00 3833.00,989.00
             3833.00,989.00 3833.00,962.00 3833.00,962.00
             3833.03,942.76 3841.29,922.91 3856.00,910.30
             3872.17,896.44 3889.42,892.33 3910.00,890.91
             3910.00,890.91 3920.00,890.00 3920.00,890.00
             3920.00,890.00 4038.00,890.00 4038.00,890.00
             4038.00,890.00 4038.00,968.00 4038.00,968.00
             4038.00,968.00 3940.00,968.00 3940.00,968.00
             3940.00,968.00 3940.00,1150.00 3940.00,1150.00
             3940.00,1150.00 3833.00,1150.00 3833.00,1150.00 Z
           M 3183.00,964.30
           C 3177.67,965.29 3173.87,966.25 3169.00,968.79
             3153.53,976.84 3149.03,991.60 3149.00,1008.00
             3149.00,1008.00 3149.00,1035.00 3149.00,1035.00
             3149.28,1058.78 3163.08,1076.70 3188.00,1077.00
             3202.99,1077.17 3217.39,1077.42 3228.91,1065.91
             3234.05,1060.77 3237.11,1054.05 3238.55,1047.00
             3240.49,1037.54 3240.00,1031.46 3240.00,1022.00
             3240.00,1005.39 3241.44,986.59 3227.96,974.18
             3216.25,963.41 3198.03,962.80 3183.00,964.30 Z
           M 4577.00,964.29
           C 4565.69,966.16 4554.24,969.85 4546.67,979.04
             4540.22,986.87 4537.12,996.92 4537.00,1007.00
             4536.74,1029.17 4533.70,1053.75 4555.00,1067.90
             4558.36,1070.13 4563.15,1072.23 4567.00,1073.48
             4571.81,1075.05 4576.94,1075.94 4582.00,1076.00
             4597.32,1076.18 4612.57,1076.57 4625.00,1065.79
             4635.88,1056.35 4636.89,1047.22 4638.17,1034.00
             4638.17,1034.00 4639.00,1015.00 4639.00,1015.00
             4639.00,1015.00 4638.17,1006.00 4638.17,1006.00
             4636.93,993.04 4636.33,984.72 4625.99,975.10
             4613.40,963.40 4593.23,962.75 4577.00,964.29 Z
           M 2674.00,965.29
           C 2661.53,967.36 2651.41,971.30 2643.79,982.00
             2635.89,993.07 2635.85,1012.71 2636.00,1026.00
             2636.10,1034.55 2637.55,1048.41 2641.38,1056.00
             2648.47,1070.05 2664.90,1076.82 2680.00,1077.00
             2697.12,1077.20 2712.74,1076.94 2725.83,1063.83
             2734.54,1055.11 2737.86,1042.01 2738.00,1030.00
             2738.23,1009.66 2740.05,989.86 2723.00,975.21
             2710.42,964.40 2689.77,963.79 2674.00,965.29 Z
           M 4203.00,965.29
           C 4190.53,967.36 4180.41,971.30 4172.79,982.00
             4164.89,993.07 4164.85,1012.71 4165.00,1026.00
             4165.10,1034.55 4166.55,1048.41 4170.38,1056.00
             4177.47,1070.05 4193.90,1076.82 4209.00,1077.00
             4226.12,1077.20 4241.74,1076.94 4254.83,1063.83
             4263.54,1055.11 4266.86,1042.01 4267.00,1030.00
             4267.23,1009.66 4269.05,989.86 4252.00,975.21
             4239.42,964.40 4218.77,963.79 4203.00,965.29 Z" />
</svg>